<svg xmlns="http://www.w3.org/2000/svg" width="102.565" height="340.572"
viewBox="0 0 102.565 340.572">
 <animateTransform
          attributeName="transform"
          type="rotate"
          from="0"
          to="360"
          dur="0.8s"
          repeatCount="indefinite"
        />
  <g id="Group_93" data-name="Group 93" transform="translate(-681.76 -399.1)">
    <g id="Layer_2" data-name="Layer 2" transform="translate(681.76 399.1)">
      <path id="Path_43" data-name="Path 43" d="M195.264,36.89h44.667a36.82,36.82,0,0,1-1.785,23.258S249.7,108.694,247.38,148.6c0,0,21.062,17.145,21.062,46.4V359.486s.231,4.726-3.416,6.242c-2.684,1.117-46.9,8.361-94.741,0,0,0-4.405-.8-4.405-6.974V193.892s1.618-29.949,22.526-45.039c0,0-.462-69.428,9.876-87.587a34.149,34.149,0,0,1-3.018-24.375Z" transform="translate(-165.88 -29.132)" fill="#b7daf8"/>
      <path id="Path_44" data-name="Path 44" d="M200.087,39.034l32.749-.154s4.932,11.456-2.774,21.666c0,0,14.024,53.336,12.046,90.888,0,0,17.723,13.832,17.723,41.366s.321,152.584.321,152.584.205,4.456-2.838,5.882c-2.235,1.053-42.766,7-82.591-.873,0,0-3.673-.745-3.673-6.563V192.774s.064-29.859,23.361-40.93c0,0-2.4-70.3,8.656-91.119C203.093,60.725,195.156,48.833,200.087,39.034Z" transform="translate(-164.41 -28.566)" fill="#deecf8"/>
      <path id="Path_75" data-name="Path 75" d="M30.816,1.337a8.38,8.38,0,0,1,3.878-2.916c10.436.405,26.188.933,26.188.933.656,5.707,6.2,17.432,6.2,20.908,0,0,3.048,31.032,4.064,47.333s.547,16.492.563,19.594c-.135,1.061,4.251,3.631,7.94,9.157,2.873,5.339,9.815,16.932,9.8,24.565C89.992,129,90,281.1,90,281.1c0,3.476-2.669,7.192-5.983,7.192A241.041,241.041,0,0,1,45.7,290.836,339,339,0,0,1,6,287.389,6.152,6.152,0,0,1,0,281.1S-1.236,124.531,1.313,120.911C3.693,106.456,8.253,102.3,12.2,96.346c3.347-3.7,9.295-7.715,11.89-10.88-1.575.314-.453-54.361,3.418-67.81A46.766,46.766,0,0,1,30.816,1.337Z" transform="translate(6.24 35.348)" fill="#ffc629"/>
      <path id="Path_45" data-name="Path 45" d="M166.2,177.887s48.661-27.419,101.971,0V279.1s-44.038,24.337-101.971,0Z" transform="translate(-165.789 7.485)" fill="#4054ad"/>
      <path id="Path_46" data-name="Path 46" d="M170.11,181s43.871-25.043,91.928,0v92.467s-39.7,22.218-91.928,0Z" transform="translate(-164.678 8.671)" fill="#eb627e"/>
      <path id="Path_47" data-name="Path 47" d="M173.07,183.54s40.249-22.976,84.325,0V268.3s-36.422,20.381-84.325,0Z" transform="translate(-163.836 9.653)" fill="#4054ad"/>
      <path id="Path_48" data-name="Path 48" d="M188.3,69.643s24.08-14.872,48.25,0a391.026,391.026,0,0,1,5.24,38.862s-23.271,16.285-57.792,0C184,108.505,185.04,85.658,188.3,69.643Z" transform="translate(-160.729 -21.7)" fill="#4054ad"/>
      <path id="Path_49" data-name="Path 49" d="M186.992,72.013s21.64-14.833,49.2.09l.424,2.312s-25.929-15.052-50,0a12.571,12.571,0,0,1,.372-2.4Z" transform="translate(-159.984 -21.014)" fill="#eb627e"/>
      <path id="Path_50" data-name="Path 50" d="M184.306,95.454s25.506,14.987,57.124,0l-.205-2S212,108.117,184.383,93.04a11.965,11.965,0,0,0-.077,2.414Z" transform="translate(-160.65 -13.17)" fill="#eb627e"/>
      <path id="Path_51" data-name="Path 51" d="M191.8,54.36a226.211,226.211,0,0,0,36.358,0S212.31,65.957,191.8,54.36Z" transform="translate(-158.512 -24.166)" fill="#354923" opacity="0.2"/>
      <path id="Path_52" data-name="Path 52" d="M238.545,125.585s-29.9,5.51-52.655-.3" transform="translate(-160.192 -4.003)" fill="#050706" opacity="0.2"/>
      <path id="Path_53" data-name="Path 53" d="M221.107,39.284s3.75,13.857-3.7,20.882c0,0,14.679,70.635,8.99,92.288,0,0,20.42,16.285,20.42,39.016v165.4s.36,3.365-1.413,4.071-11.558,3.018-18.981,1.952c0,0-1.605.154-1.605-2.35s-.886-167.109-.886-167.109-3.249-35.3-16.5-42.2c0,0,8.759-55.506,1.67-91.5,0,0,7.616-14.615.758-21.049Z" transform="translate(-154.069 -28.623)" fill="#f0f6fb" opacity="0.61"/>
      <path id="Path_54" data-name="Path 54" d="M199.79,39.057s-1.5,14.615,5.972,21.627c0,0-13.228,31.683-8.348,90.181,0,0-24.4,14.628-24.208,42.6.128,22.744-1.079,162.255-1.079,162.255s-.372,3.378,1.4,4.084,1.477,2.774,8.913,1.721c0,0,1.605.154,1.605-2.363s-.218-164.387-.218-164.387-1.58-26.006,24.581-43.062c0,0-4.855-56.02,2.235-92.018,0,0-5.574-14.281.347-20.9Z" transform="translate(-164.113 -28.589)" fill="#050706" opacity="0.07"/>
      <path id="Path_55" data-name="Path 55" d="M227.857,30.85h-32.62s-8.476-.3-8.476,10.043c0,0,.193,6.511,5.522,6.511h38.464s5.882-.205,5.625-8.284C236.14,31.749,227.857,30.85,227.857,30.85Z" transform="translate(-159.944 -30.849)" fill="#4054ad"/>
      <path id="Path_56" data-name="Path 56" d="M211.34,31.87h9.144s7.295,5.908.693,13.78h-9.722S216.439,38.24,211.34,31.87Z" transform="translate(-152.957 -30.559)" fill="#fff" opacity="0.21"/>
      <path id="Path_57" data-name="Path 57" d="M202.172,32h-9.157s-7.295,5.908-.693,13.78h9.735S197.074,38.421,202.172,32Z" transform="translate(-159.149 -30.522)" opacity="0.2"/>
    </g>
    <g id="final-logo" transform="translate(707.095 595.547)">
      <text id="FOO" transform="translate(0 40.821)" fill="#fdd13d" font-size="20" font-family="Futura-Bold, Futura" font-weight="700"><tspan x="0" y="0">FOO</tspan></text>
      <text id="BAR" transform="translate(0.03 59.597)" fill="#f16a38" font-size="20" font-family="Futura-Bold, Futura" font-weight="700"><tspan x="0" y="0">BAR</tspan></text>
      <path id="Path_73" data-name="Path 73" d="M39,167.1H88.382v6.861a103.722,103.722,0,0,1-24.93,2.872A89.09,89.09,0,0,1,39,173.682Z" transform="translate(-37.76 -103.765)" fill="#f5f8fc"/>
      <path id="Path_74" data-name="Path 74" d="M81.923,43.494,82,35.038V32.126s-.12-1.237,2.912-1.237H89.98s1.077-10.571-8.337-10.172c0,0-2.034-7.938-10.251-6.263,0,0-3.032-8.058-11.927-5.7S51.248,19.84,51.248,19.84,40.039,15.532,39.8,31.128l21.1.16s3.151.12,3.032,6.263c-.16,7.22,0,12.246,0,12.246s-.239,3.75,3.989,3.75,3.63-3.63,3.63-3.63V38.348s0-3.191,3.111-3.191a2.835,2.835,0,0,1,2.992,2.992v5.265s-.239,2.673,2.154,2.673S81.923,43.494,81.923,43.494Z" transform="translate(-38.241 -8.32)" fill="#fff"/>
    </g>
  </g>
</svg>
